<svg width="57" height="56" viewBox="0 0 57 56" fill="none" xmlns="http://www.w3.org/2000/svg">
<circle cx="28.9829" cy="28" r="28" fill="#D5D7F6"/>
<path d="M29 11.333C26.8113 11.333 24.644 11.7641 22.622 12.6017C20.5999 13.4393 18.7625 14.6669 17.2149 16.2146C14.0893 19.3402 12.3333 23.5794 12.3333 27.9997C12.3333 32.4199 14.0893 36.6592 17.2149 39.7848C18.7625 41.3324 20.5999 42.5601 22.622 43.3977C24.644 44.2352 26.8113 44.6663 29 44.6663C33.4203 44.6663 37.6595 42.9104 40.7851 39.7848C43.9107 36.6592 45.6667 32.4199 45.6667 27.9997C45.6667 25.811 45.2356 23.6437 44.398 21.6216C43.5604 19.5995 42.3328 17.7622 40.7851 16.2146C39.2375 14.6669 37.4002 13.4393 35.3781 12.6017C33.356 11.7641 31.1887 11.333 29 11.333ZM29 21.983C31.6892 23.7302 34.8264 24.6621 38.0333 24.6663C39.3333 24.6663 40.5833 24.5163 41.7833 24.233C42.1333 25.4163 42.3333 26.683 42.3333 27.9997C42.3333 35.3497 36.35 41.333 29 41.333C24 41.333 19.65 38.5663 17.3333 34.483L20.25 31.333V29.6663C20.25 29.1138 20.4695 28.5839 20.8602 28.1932C21.2509 27.8025 21.7808 27.583 22.3333 27.583C22.8859 27.583 23.4158 27.8025 23.8065 28.1932C24.1972 28.5839 24.4167 29.1138 24.4167 29.6663V31.333H29M35.6667 27.583C35.1141 27.583 34.5842 27.8025 34.1935 28.1932C33.8028 28.5839 33.5833 29.1138 33.5833 29.6663C33.5833 30.2189 33.8028 30.7488 34.1935 31.1395C34.5842 31.5302 35.1141 31.7497 35.6667 31.7497C36.2192 31.7497 36.7491 31.5302 37.1398 31.1395C37.5305 30.7488 37.75 30.2189 37.75 29.6663C37.75 29.1138 37.5305 28.5839 37.1398 28.1932C36.7491 27.8025 36.2192 27.583 35.6667 27.583Z" fill="#3D3DD8"/>
</svg>
